<svg xmlns="http://www.w3.org/2000/svg" width="1024" height="1024" viewBox="256 210 512 512"><rect x="256" y="210" width="512" height="512" rx="100" ry="100" fill="#2d6b74"/>
<path fill="#a8c7ca" d="M466.5 317.5q.25 14.009-.5 28-.75 2.75-3.5 3.5a61 61 0 0 1-11 .5q-1.453-1.214-2.5-3a552 552 0 0 1 0-47q5.757-9.951 15-3l2 4q.749 8.486.5 17"/><path fill="#a8c7ca" d="M440.5 399.5a69 69 0 0 0 7.5 6q.75-22.494.5-45h17q-.495 10.05 1 20 .91-.186 1-1 5.427-9.46 16-8.5 7.856 4.911 3.5 13.5l-19 19q-3.397 9.423 2 18a314 314 0 0 0 16.5 14q-2.276.016-3.5 2-4.707 4.938-7.5 11a457949 457949 0 0 0-116-89q-9.182-7.808-1-16.5 3.293-2.06 7-1a1200 1200 0 0 1 45.5 34.5q1-18 0-36a296 296 0 0 0-20-21q-6.63-14.854 9.5-14.5a406 406 0 0 1 24.5 23.5l3 6a667 667 0 0 1 2 50q2.037 9.782 10.5 15"/><path fill="#a8c7ca" d="M519.5 277.5q-.5 39.513 1 79 .91-.186 1-1a537 537 0 0 0 33.5-34 144.6 144.6 0 0 0 2-22q8.371-11.84 17 0 1 10.5 0 21a25.65 25.65 0 0 1-4 11 181 181 0 0 1-10.5 12q-23.181 18.428-39.5 43a274.7 274.7 0 0 0 1 46q3.165 8.167 11.5 5.5a95.3 95.3 0 0 0 21.5-18.5l2-4 1-48q7.823-11.385 17-1a614 614 0 0 0 1.5 35q8.5-5.5 9.5-6.5 2-1 3-3 3-4.5 4-9 .07-23.6 2-47 10.558-17.064 26.5-29.5 13.75-2.25 11.5 11.5l-21 23a240 240 0 0 0 0 31 967 967 0 0 1 40.5-33.5q14.923-.812 10 13.5A35962 35962 0 0 0 532 464a169.3 169.3 0 0 0-25.5-20.5 11.5 11.5 0 0 1-3.5-4.5 2005 2005 0 0 1-2-88 15.4 15.4 0 0 0-3-6l-24-24a10.1 10.1 0 0 1-1.5-4q.926-11.176 12-9.5A180 180 0 0 1 501 323l1-45q4.102-8.433 12.5-4.5 3.5 1.5 5 4m-230 136q10.175-.63 20 1.5 6.342 7.926-1 15a100.2 100.2 0 0 1-20 0q-8.182-8.692 1-16.5m414 0q15.009-.25 30 .5 9.956 8.144 0 16-15 1-30 0-9.947-8.101 0-16.5"/><path fill="#a8c7ca" d="M680.5 377.5q2.451 5.493-1.5 10L655.5 413q11.158.105 22 2 8.218 7.959-1 15l-38 1a1821 1821 0 0 1-34 37.5q-.814.09-1 1 16.74 1.986 33 0a23.4 23.4 0 0 0 6-2.5l22-22q11.001-4.5 14 7-4.15 10.023-13 16.5-.814.09-1 1a307 307 0 0 0 35 1q10.109 3.23 5.5 13a11.5 11.5 0 0 1-4.5 3.5 762 762 0 0 0-39 1.5 117.3 117.3 0 0 0 16 15.5q18.643.059 37 2 8.632 9.205-2 16a219.5 219.5 0 0 1-41-1 36.2 36.2 0 0 1-7-4 424 424 0 0 1-24-25 22.6 22.6 0 0 0-8-4 756 756 0 0 0-55 0q-12.1.154-22 6.5-5.082 1.678-8.5 6a132 132 0 0 0-3.5-18q.044-2.294 2-3.5 13.69-7.048 29-9a32.5 32.5 0 0 0 7-3l86-93q7.628-1.998 13 3.5m-326-4a30208 30208 0 0 0 87 93.5q7.387 5.044 16 5.5h-3a202 202 0 0 1-3 16 672 672 0 0 0-62-.5l-6 3a205.5 205.5 0 0 1-30 29l-6 2a342 342 0 0 1-37 0q-5.376-2.496-5-8.5-.376-6.004 5-8.5l34-1a75 75 0 0 0 17-15.5 802 802 0 0 0-40-1.5q-7.42-5.265-3.5-13.5a11.1 11.1 0 0 1 4.5-3q48.51.5 97-1-.186-.91-1-1a1733 1733 0 0 0-34-36.5l-48-1q-11.295-8.016-1-17l32-1a513 513 0 0 1-25.5-28.5q-1.237-13.498 12.5-11"/><path fill="#f7fdfe" d="M486.5 435.5a1300 1300 0 0 1 35 26.5q8.738 7.485 12 18.5-2.039-.76-3-3-4.47 7.486-11 13-4.144-9.005-11-16.5a1310 1310 0 0 1-33-25.5q2.793-6.062 7.5-11 1.224-1.984 3.5-2m-29 37a57.2 57.2 0 0 1 13 3.5q21.501 8.748 29 30.5-1.76 4.302-5 8 2 2 0 4-4.135.793-7.5 3l-1-1a605 605 0 0 1-1.5 35 340 340 0 0 0-1.5-44q-5.847-14.346-20.5-19.5a210 210 0 0 0-11-3.5 202 202 0 0 0 3-16z"/><path fill="#f7fdfe" d="M533.5 480.5A44 44 0 0 1 537 494q-.25 31.004.5 62 1.707 17.164 15.5 27.5a86 86 0 0 0 19 10 352 352 0 0 0 35 3.5q21 1 35 11-1 10-6 18-15-10-37-11-49 1-60-21-4 33 31 50-3 9-12 15-33-14-38-44-2-10-2-20a8124 8124 0 0 1 1-105q6.53-5.514 11-13l3 3m-33.5 26.5q2.5 46.5 0 97.5-1.5 21-10.5 30-8-3-15-9 6.5-17 5-30-14 6-23 27-12 29-26 37-7-6-15-14 20-17 27-39-21 0-32 13-8-5-13-10 9-21 48-23 46-5 37-78"/></svg>